<?xml version="1.0" encoding="UTF-8"?> <svg xmlns="http://www.w3.org/2000/svg" viewBox="0 0 620.99 620.99"><defs><style>.cls-1{fill:blue;}.cls-2{fill:#39b54a;}.cls-3{fill:red;}.cls-4{fill:#ff931e;}.cls-5{fill:#fff;stroke:#000;stroke-miterlimit:10;}</style></defs><g id="Layer_2" data-name="Layer 2"><g id="Layer_1-2" data-name="Layer 1"><path class="cls-1" d="M50,0H310.49a0,0,0,0,1,0,0V310.49a0,0,0,0,1,0,0H0a0,0,0,0,1,0,0V50A50,50,0,0,1,50,0Z"></path><path class="cls-2" d="M310.49,0H571a50,50,0,0,1,50,50V310.49a0,0,0,0,1,0,0H310.49a0,0,0,0,1,0,0V0A0,0,0,0,1,310.49,0Z"></path><path class="cls-3" d="M310.49,621H50A50,50,0,0,1,0,571V310.49H310.49Z"></path><path class="cls-4" d="M310.49,310.49H621a0,0,0,0,1,0,0V571a50,50,0,0,1-50,50H310.49a0,0,0,0,1,0,0V310.49A0,0,0,0,1,310.49,310.49Z"></path><path class="cls-5" d="M301.25,253.13a88.49,88.49,0,0,0-88.58-88.38H34V250H94.57V225.22H200.9c11.06,0,20.82,4.93,26.57,12.4a25.39,25.39,0,0,1,5.4,15.51c0,15.39-14.34,27.9-32,27.9H157.5a30.25,30.25,0,0,0-30.26,29.46c0,.26,0,.52,0,.78a30.26,30.26,0,0,0,30.3,30.23h43.4c17.63,0,32,12.52,32,27.91a25,25,0,0,1-4.33,13.95c-5.53,8.33-15.84,14-27.64,14H94.57V288H34V456.23H229.14a88.33,88.33,0,0,0,72.11-86.82h0a87.91,87.91,0,0,0-21.9-58.14l.65-.78h0a87.86,87.86,0,0,0,21.25-57.36Z"></path><path class="cls-5" d="M408.57,396.54a9.49,9.49,0,0,1-8.75-13.18h-.76a9.4,9.4,0,0,1,2.69-3.55l85.39-70.87h.67l89.67-74.42h-.13l9.46-7.85V164H319.52v60.46H498.17a9.39,9.39,0,0,1,9.4,10.08h.13a9.17,9.17,0,0,1-3.38,6.54l-81.8,67.88h-.68l-89.67,74.42h.76l-13.19,10.95V457H587V396.54Z"></path></g></g></svg> 